<?xml version="1.0" encoding="UTF-8"?>
<!DOCTYPE svg PUBLIC "-//W3C//DTD SVG 1.1//EN" "http://www.w3.org/Graphics/SVG/1.1/DTD/svg11.dtd">
<!-- Creator: CorelDRAW -->
<svg xmlns="http://www.w3.org/2000/svg" xml:space="preserve" width="162.56mm" height="91.44mm" version="1.1" style="shape-rendering:geometricPrecision; text-rendering:geometricPrecision; image-rendering:optimizeQuality; fill-rule:evenodd; clip-rule:evenodd"
viewBox="0 0 16256 9144"
 xmlns:xlink="http://www.w3.org/1999/xlink"
 xmlns:xodm="http://www.corel.com/coreldraw/odm/2003">
 <defs>
  <style type="text/css">
   <![CDATA[
    .fil1 {fill:#151419}
    .fil3 {fill:#3C1E68}
    .fil2 {fill:#635AD9}
    .fil4 {fill:#7C52C4}
    .fil0 {fill:#908AE4}
   ]]>
  </style>
    <clipPath id="id0">
     <path d="M52761.41 36538.47l5542.96 0 0 5526.43 -5542.96 0 0 -5526.43z"/>
    </clipPath>
 </defs>
 <g id="Layer_x0020_1">
  <metadata id="CorelCorpID_0Corel-Layer"/>
  <g id="_2719071121840">
   <g style="clip-path:url(#id0)">
    <image x="52761.41" y="36538.47" width="5542.96" height="5526.43" xlink:href="scissors_Images\scissors_ImgID1.png"/>
   </g>
  </g>
  <g id="_2719071121696">
   <g>
    <path class="fil0" d="M55101.89 38449.14l354.32 979.32c15.84,43.78 64.63,66.64 108.41,50.8l207.01 -74.9c43.76,-15.83 66.64,-64.65 50.81,-108.4l-308.89 -853.75c-25.92,-71.64 -161.8,-173.48 -265.31,-136.04l-95.54 34.57c-43.79,15.84 -66.65,64.62 -50.81,108.4z"/>
    <path id="_1" class="fil1" d="M55101.89 38449.14l354.32 979.32c15.84,43.78 64.63,66.64 108.41,50.8l207.01 -74.9c43.76,-15.83 66.64,-64.65 50.81,-108.4l-308.89 -853.75c-25.92,-71.64 -161.8,-173.48 -265.31,-136.04l-95.54 34.57c-43.79,15.84 -66.65,64.62 -50.81,108.4zm298.75 999.46l-354.32 -979.32 -3.7 -10.23 0 -1.56c-8.98,-33.58 -5.14,-68.2 8.83,-98.03 15.65,-33.4 43.95,-60.85 81.1,-74.29l10.22 -3.7 0.02 0 85.31 -30.87c63.65,-23.01 133.07,-9.31 192.73,21.27 70.08,35.93 129.5,98.25 148.29,150.2l308.89 853.75 3.7 10.22 0 1.57c8.99,33.58 5.13,68.19 -8.85,98.02 -15.65,33.39 -43.96,60.88 -81.08,74.3l-10.23 3.7 -0.01 0 -196.78 71.2c-37.18,13.45 -76.49,10.47 -109.82,-5.13 -33.38,-15.64 -60.86,-43.95 -74.3,-81.1z"/>
   </g>
   <path class="fil2" d="M55101.89 38449.14l116.59 322.25c-42.74,-118.15 353.68,-167.19 382.16,-88.48l-87.09 -240.7c-25.91,-71.63 -161.8,-173.48 -265.31,-136.04l-95.54 34.57c-43.79,15.84 -66.65,64.62 -50.81,108.4z"/>
   <g>
    <path class="fil3" d="M55194.1 40022.98c80.34,222.05 325.48,336.93 547.53,256.59 222.06,-80.33 336.94,-325.47 256.6,-547.53l-76.33 -210.97 -44.06 -121.79 -108.61 -300.19c-15.85,-43.8 -64.63,-66.65 -108.42,-50.81l-238.86 86.42c-43.8,15.85 -66.66,64.64 -50.81,108.41 19.81,54.72 36.6,95.32 56.98,149.47 16.7,44.39 -6.53,94.23 -76.73,137.36 -159.33,97.91 -218.14,309.67 -160.55,483.64l3.26 9.4zm461.4 -603.61c68.15,-24.66 103.41,-99.9 78.75,-168.05 -24.66,-68.16 -99.89,-103.42 -168.05,-78.76 -152.12,69.48 -83.07,257.52 46.39,254.22 16.44,-0.43 27.23,-3.15 42.91,-7.41zm-246.44 525.83c37.39,103.34 151.46,156.8 254.8,119.41 103.33,-37.39 156.79,-151.46 119.41,-254.79 -43.66,-102.57 -138.92,-155.19 -247.08,-121.27 -87.85,27.55 -137.09,99.19 -139.05,190.28 0.17,24.83 4.22,42.98 11.92,66.37z"/>
    <path id="_1_0" class="fil1" d="M55194.1 40022.98c80.34,222.05 325.48,336.93 547.53,256.59 222.06,-80.33 336.94,-325.47 256.6,-547.53l-76.33 -210.97 -44.06 -121.79 -108.61 -300.19c-15.85,-43.8 -64.63,-66.65 -108.42,-50.81l-238.86 86.42c-43.8,15.85 -66.66,64.64 -50.81,108.41 19.81,54.72 36.6,95.32 56.98,149.47 16.7,44.39 -6.53,94.23 -76.73,137.36 -159.33,97.91 -218.14,309.67 -160.55,483.64l3.26 9.4zm461.4 -603.61c68.15,-24.66 103.41,-99.9 78.75,-168.05 -24.66,-68.16 -99.89,-103.42 -168.05,-78.76 -152.12,69.48 -83.07,257.52 46.39,254.22 16.44,-0.43 27.23,-3.15 42.91,-7.41zm-246.44 525.83c37.39,103.34 151.46,156.8 254.8,119.41 103.33,-37.39 156.79,-151.46 119.41,-254.79 -43.66,-102.57 -138.92,-155.19 -247.08,-121.27 -87.85,27.55 -137.09,99.19 -139.05,190.28 0.17,24.83 4.22,42.98 11.92,66.37zm-19.34 372.95c-112.84,-52.88 -205.5,-148.76 -251.19,-275.03l-0.23 -0.92 -3.26 -9.4 -0.46 -0.7c-33.39,-100.85 -32.19,-213.08 1.15,-313.54 32.28,-97.24 94.54,-183.72 184.64,-239.09 25.39,-15.59 41.57,-30.69 49.34,-44.6 4.45,-7.98 5.39,-15.3 3.08,-21.45 -9.95,-26.44 -16.58,-43.46 -23.18,-60.45 -11.11,-28.56 -21.92,-56.34 -33.12,-87.17l-0.03 -0.07 -0.9 -2.5c-13.45,-37.15 -10.48,-76.47 5.13,-109.79 15.26,-32.55 42.55,-59.48 78.32,-73.26l0.3 -0.15 2.5 -0.9 238.86 -86.42c37.2,-13.45 76.5,-10.49 109.83,5.13 33.4,15.65 60.87,43.96 74.3,81.11l108.61 300.19 44.06 121.79 75.88 209.73 0.46 1.26c45.69,126.31 35.86,259.25 -17,372.03 -52.52,112.08 -147.45,204.23 -272.46,250.24l-0.09 0.04 -2.49 0.91c-126.33,45.7 -259.26,35.86 -372.05,-16.99zm248.76 -955.56c17.26,-7.14 30.37,-20.23 37.72,-35.94 7.82,-16.69 9.26,-36.44 2.48,-55.19 -6.8,-18.81 -20.51,-33.06 -37.14,-40.85 -16.19,-7.59 -35.26,-9.18 -53.51,-3.07 -26.34,12.7 -41.01,29.9 -46.55,47.73l-0.07 -0.02c-3.55,11.59 -3.58,23.89 -0.75,35.58 3.02,12.44 9.14,24.12 17.66,33.65 12.84,14.37 31.36,23.8 52.88,23.26 4.34,-0.11 8.24,-0.58 12.25,-1.34 2.79,-0.52 8.25,-1.97 15.03,-3.81zm-173.24 564.12c13.37,35.57 39.65,62.57 71.49,77.49 32.39,15.18 70.63,17.99 106.99,4.84 36.39,-13.16 63.98,-39.77 79.13,-72.1 14.93,-31.85 17.9,-69.38 5.48,-105.2 -16.62,-38.4 -42.01,-66.83 -72.59,-81.84 -28.88,-14.17 -63.9,-16.79 -101.95,-4.86 -30.84,9.67 -54.69,26.57 -70.81,48.63 -16.81,23 -26.01,52.42 -26.79,85.94 0.1,7.84 0.86,14.93 2.2,22.07 1.31,6.98 3.69,15.15 6.93,25l-0.08 0.03z"/>
   </g>
   <g>
    <path class="fil0" d="M54605.77 39060.96l1041.44 0c46.56,0 84.65,38.1 84.65,84.66l0 220.14c0,46.54 -38.12,84.66 -84.65,84.66l-907.91 0c-76.18,0 -218.18,-93.13 -218.18,-203.2l0 -101.6c0,-46.57 38.09,-84.66 84.65,-84.66z"/>
    <path id="_1_1" class="fil1" d="M54605.77 39001.69l1041.44 0c39.37,0 75.29,16.17 101.45,42.23l0.12 0.12 0.12 0.12c26.07,26.17 42.23,62.1 42.23,101.46l0 220.14c0,39.63 -16.19,75.64 -42.24,101.69l-0.12 -0.12c-26.17,26.13 -62.14,42.36 -101.56,42.36l-907.91 0c-55.27,0 -134.1,-34.68 -191.72,-88.36 -49.16,-45.78 -85.73,-106.44 -85.73,-174.11l0 -101.6c0,-39.64 16.18,-75.66 42.22,-101.7 26.06,-26.06 62.06,-42.23 101.7,-42.23zm0 59.27l1041.44 0c46.56,0 84.65,38.1 84.65,84.66l0 220.14c0,46.54 -38.12,84.66 -84.65,84.66l-907.91 0c-76.18,0 -218.18,-93.13 -218.18,-203.2l0 -101.6c0,-46.57 38.09,-84.66 84.65,-84.66z"/>
   </g>
   <path class="fil2" d="M54605.77 39060.96l342.69 0c-125.65,0 -36.89,389.46 46.81,389.46l-255.97 0c-76.17,0 -218.18,-93.13 -218.18,-203.2l0 -101.6c0,-46.57 38.09,-84.66 84.65,-84.66z"/>
   <g>
    <path class="fil4" d="M56117.09 38612.22c236.14,0 427.57,191.43 427.57,427.57 0,236.14 -191.43,427.57 -427.57,427.57l-224.36 0 -129.51 0 -319.24 0c-46.57,0 -84.66,-38.09 -84.66,-84.66l0 -254.02c0,-46.57 38.1,-84.67 84.66,-84.66 58.19,0.02 102.08,1.99 159.94,2.73 47.42,0.6 86.38,-38.2 103.06,-118.88 37.86,-183.14 216.98,-310.49 400.16,-315.52l9.95 -0.13zm-410.63 639.23c0,72.48 -58.75,131.23 -131.23,131.23 -72.48,0 -131.23,-58.75 -131.23,-131.23 13.58,-166.69 213.89,-165.73 254.83,-42.87 5.2,15.61 6.31,26.68 7.63,42.87zm410.63 -410.63c109.89,0 198.97,89.08 198.97,198.97 0,109.89 -89.08,198.97 -198.97,198.97 -111.3,-6.16 -193.19,-77.83 -198.09,-191.08 -3.98,-91.98 46.63,-162.66 131.62,-195.49 23.4,-8.29 41.85,-10.66 66.47,-11.37z"/>
    <path id="_1_2" class="fil1" d="M56117.09 38552.95c134.43,0 256.15,54.5 344.25,142.59 88.09,88.1 142.59,209.82 142.59,344.25 0,134.43 -54.5,256.15 -142.59,344.25 -88.1,88.09 -209.82,142.59 -344.25,142.59l-224.36 0 -129.51 0 -319.24 0c-39.36,0 -75.29,-16.16 -101.46,-42.23l-0.12 -0.12 -0.12 -0.12c-26.06,-26.16 -42.23,-62.08 -42.23,-101.46l0 -254.02 0 -0.02c0,-39.65 16.19,-75.65 42.23,-101.69l0.24 0c26.06,-26.04 61.97,-42.22 101.44,-42.22l0.02 0 0 0.23c35.97,0.01 65.54,0.72 95.95,1.44 21.15,0.49 42.76,1.01 64.68,1.29 6.57,0.08 13.12,-3.27 19.08,-10.15 10.66,-12.3 19.45,-32.65 25.41,-61.5 21.49,-103.99 81.54,-192.05 161.77,-255.31 82.86,-65.34 188.05,-104.52 294.65,-107.44l0.93 0 9.95 -0.13 0.69 -0.23zm0 59.27c236.14,0 427.57,191.43 427.57,427.57 0,236.14 -191.43,427.57 -427.57,427.57l-224.36 0 -129.51 0 -319.24 0c-46.57,0 -84.66,-38.09 -84.66,-84.66l0 -254.02c0,-46.57 38.1,-84.67 84.66,-84.66 58.19,0.02 102.08,1.99 159.94,2.73 47.42,0.6 86.38,-38.2 103.06,-118.88 37.86,-183.14 216.98,-310.49 400.16,-315.52l9.95 -0.13zm-410.63 639.23c0,72.48 -58.75,131.23 -131.23,131.23 -72.48,0 -131.23,-58.75 -131.23,-131.23 13.58,-166.69 213.89,-165.73 254.83,-42.87 5.2,15.61 6.31,26.68 7.63,42.87zm410.63 -410.63c109.89,0 198.97,89.08 198.97,198.97 0,109.89 -89.08,198.97 -198.97,198.97 -111.3,-6.16 -193.19,-77.83 -198.09,-191.08 -3.98,-91.98 46.63,-162.66 131.62,-195.49 23.4,-8.29 41.85,-10.66 66.47,-11.37zm-490.85 461.64c12.59,-12.66 20.51,-30.07 20.93,-49.4 -0.52,-6.32 -0.99,-11.34 -1.41,-14 -0.61,-3.83 -1.52,-7.61 -2.96,-11.96 -6.72,-20.16 -21.87,-34.25 -39.77,-41.44 -11.93,-4.79 -25.08,-6.59 -37.92,-5.19 -11.86,1.3 -23.37,5.55 -33.06,12.89 -14.74,11.17 -25.82,30.77 -28.76,59.94 0.49,19.14 8.45,36.43 21.06,49.04 13.01,13.01 31.01,21.07 50.88,21.07 19.97,0 38,-8.01 51.01,-20.95zm589.63 -361.69c-25.12,-25.13 -60.04,-40.68 -98.78,-40.68l0 -0.18c-9.09,0.3 -17,0.9 -24.43,2.09 -6.64,1.07 -13.77,2.95 -22.36,5.99l-0.02 -0.06c-30.79,12.2 -54.93,30.66 -70.55,53.88 -15.29,22.72 -23.09,50.95 -21.69,83.32 1.71,39.63 16.1,71.57 39.27,93.92 24.26,23.4 58.95,37.6 99.78,40.46l0 -0.02c38.74,0 73.66,-15.55 98.78,-40.68l0.24 -0.24c25.13,-25.12 40.68,-60.04 40.68,-98.78 0,-38.73 -15.56,-73.66 -40.68,-98.78l-0.24 -0.24z"/>
   </g>
  </g>
 </g>
</svg>
